<?xml version="1.0" encoding="utf-8"?>
<!DOCTYPE svg PUBLIC "-//W3C//DTD SVG 1.0//EN" "http://www.w3.org/TR/2001/REC-SVG-20010904/DTD/svg10.dtd">
<svg version="1.0" xmlns="http://www.w3.org/2000/svg" width="500px" height="286px" viewBox="0 0 500 286" preserveAspectRatio="xMidYMid meet">
 <g fill="#ffffff" stroke="#ffffff" stroke-width="0.372">
  <path d="M125 190.59 c0.04 -1.90 1.15 -8.44 1.64 -9.34 0.71 -1.34 2.38 -2.90 3.76 -3.50 0.82 -0.33 5.06 -0.52 16.63 -0.67 l15.55 -0.19 0.93 -0.97 c0.93 -0.93 1.64 -2.94 1.67 -4.69 l0 -0.86 -15.89 0 c-9.86 0 -16.44 -0.15 -17.30 -0.37 -1.97 -0.56 -3.35 -2.49 -3.53 -4.95 -0.11 -1.19 0.86 -9.11 2.46 -20.16 3.53 -24.81 3.35 -22.58 1.93 -24.55 -0.67 -0.93 -1.08 -1.67 -0.89 -1.71 0.15 0 3.24 0 6.77 0.04 7.14 0.07 8.15 0.30 9.15 2.23 0.82 1.60 0.71 3.42 -0.93 14.40 -2.57 17.56 -2.90 20.01 -2.72 20.31 0.07 0.15 4.99 0.26 10.86 0.26 9.67 0 10.83 -0.07 11.53 -0.63 0.71 -0.60 1.04 -2.49 3.20 -17.60 1.34 -9.30 2.53 -17.37 2.64 -17.97 l0.22 -1 5.32 0 c5.21 0 5.36 0.04 6.47 0.97 1.93 1.64 2.05 2.94 0.97 10.86 -2.94 21.32 -7.70 54.06 -8.07 55.47 -0.52 1.97 -1.79 3.57 -3.68 4.50 -1.38 0.71 -2.34 0.74 -25.07 0.74 -22.25 0 -23.62 -0.04 -23.62 -0.63z"/>
  <path d="M93.38 169.94 c0.04 -0.26 0.67 -0.93 1.49 -1.49 0.78 -0.56 1.71 -1.38 2.01 -1.86 0.33 -0.52 1 -4.09 1.64 -8.85 0.63 -4.39 2.64 -18.64 4.54 -31.62 3.68 -25.60 3.79 -26.15 6.29 -27.79 1.15 -0.78 1.67 -0.86 6.81 -0.86 l5.54 0 -0.22 1.23 c-0.22 1.30 -3.31 22.62 -7.11 49 -2.68 18.82 -2.83 19.42 -5.65 21.39 l-1.64 1.12 -6.85 0.11 c-5.51 0.11 -6.85 0.04 -6.85 -0.37z"/>
  <path d="M192.71 170.09 c0 -0.19 0.67 -0.86 1.53 -1.53 0.82 -0.67 1.75 -1.75 2.05 -2.38 0.30 -0.67 1.86 -10.45 3.50 -21.80 3.31 -23.18 3.35 -23.33 6.32 -24.96 l1.67 -0.93 21.95 0.15 c23.92 0.15 23.44 0.07 24.55 2.27 0.89 1.71 0.71 3.98 -1.67 20.83 -1.23 8.71 -2.49 17.52 -2.79 19.61 -0.63 4.54 -1.53 6.44 -3.61 7.81 -1.49 1 -1.79 1.04 -6.92 1.15 l-5.36 0.15 0.22 -1.45 c0.41 -2.60 5.06 -35.75 5.06 -35.97 0 -0.11 -5.02 -0.22 -11.16 -0.22 l-11.16 0 -0.56 0.89 c-0.63 0.97 -0.74 1.56 -3.16 19.20 -1.53 11.09 -2.01 13.28 -3.42 15.10 -1.60 2.01 -3.16 2.38 -10.42 2.38 -3.65 0 -6.62 -0.15 -6.62 -0.30z"/>
  <path d="M261.16 170.28 c0 -0.07 0.89 -1.04 1.97 -2.16 l2.01 -2.01 2.68 -19.35 c1.49 -10.64 3.68 -26.04 4.84 -34.23 l2.12 -14.88 5.28 -0.11 c6.58 -0.11 7.48 0.30 8.30 3.98 0.26 1.23 0 3.42 -3.42 27.49 -0.60 4.35 -1 8.07 -0.89 8.26 0.15 0.22 4.61 0.37 11.38 0.37 l11.12 0 0.37 -0.82 c0.19 -0.48 0.71 -3.53 1.15 -6.81 1.41 -10.53 2.23 -11.35 11.05 -11.35 l5.17 0 -0.48 3.09 c-0.26 1.67 -0.93 6.25 -1.45 10.12 -1.12 8 -1.86 10.23 -4.09 11.90 l-1.38 1.08 1.15 1.04 c1.93 1.82 2.05 3.13 0.97 10.60 -1.15 7.92 -1.45 9.19 -2.60 10.94 -1.53 2.34 -3.35 2.94 -9.04 2.94 -2.72 0 -4.91 -0.07 -4.91 -0.15 0 -0.26 2.19 -15.66 2.42 -16.85 l0.22 -1.23 -11.76 0 c-6.88 0 -11.72 0.15 -11.72 0.33 0 1 -1.56 11.24 -1.90 12.50 -0.56 2.08 -2.01 3.87 -3.83 4.69 -1.30 0.60 -2.49 0.71 -8.11 0.71 -3.65 0 -6.62 -0.04 -6.62 -0.11z"/>
  <path d="M332.96 139.51 c0 -1.82 1.23 -8.15 1.82 -9.49 0.82 -1.82 2.38 -3.27 4.09 -3.87 0.89 -0.30 7.96 -0.41 23.85 -0.41 l22.58 0 -0.67 4.46 c-0.93 6.06 -2.08 8.15 -5.25 9.49 -1.19 0.48 -4.43 0.56 -23.92 0.56 -22.28 0 -22.51 0 -22.51 -0.74z"/>
 </g>
 <g fill="#f9c920" stroke="#f9c920" stroke-width="0.372">
  <path d="M47.25 209.75 c0 -0.19 2.79 -4.20 6.21 -8.93 3.39 -4.76 9.11 -12.76 12.69 -17.78 3.57 -5.02 7.55 -10.53 8.82 -12.28 1.26 -1.75 5.47 -7.59 9.30 -13.02 10.19 -14.29 13.50 -18.60 12.69 -16.56 -0.11 0.30 -0.37 2.01 -0.60 3.79 -0.33 2.38 -0.71 3.68 -1.41 4.76 -0.82 1.26 -18.45 26 -37.54 52.64 l-5.21 7.25 -2.46 0.19 c-1.38 0.11 -2.49 0.07 -2.49 -0.07z"/>
  <path d="M58.59 209.78 c-0.15 -0.22 2.57 -4.09 17.11 -24.33 5.28 -7.37 11.42 -15.92 13.65 -19.05 2.19 -3.09 4.20 -5.77 4.43 -5.88 0.26 -0.19 0.30 0.26 0.11 1.53 -0.37 2.64 -0.74 3.39 -1.93 4.02 -1.75 0.89 -2.05 1.53 -2.01 4.09 l0.04 2.34 -7.25 10.19 c-3.98 5.62 -9.97 13.99 -13.28 18.64 l-6.03 8.41 -2.34 0.15 c-1.30 0.04 -2.46 0 -2.49 -0.11z"/>
  <path d="M70.01 209.60 c0.11 -0.41 5.77 -8.56 12.61 -18.12 l12.43 -17.37 2.53 0 2.53 0 -0.86 1.23 c-0.45 0.63 -4.69 6.55 -9.38 13.10 -4.69 6.55 -10.04 14.03 -11.90 16.67 l-3.31 4.72 -1.79 0 c-0.97 0 -2.05 0.11 -2.42 0.26 -0.48 0.19 -0.60 0.07 -0.45 -0.48z"/>
  <path d="M81.10 209.71 c0 -0.33 19.61 -27.90 23.74 -33.41 1.53 -2.01 1.97 -2.38 3.53 -2.75 4.35 -1.08 6.70 -4.09 7.70 -9.97 0.33 -2.16 0.78 -4.13 0.97 -4.39 0.15 -0.30 1.67 -2.34 3.31 -4.61 1.67 -2.23 3.72 -5.06 4.61 -6.25 0.89 -1.19 1.64 -2.12 1.71 -2.05 0.07 0.07 -0.11 1.86 -0.41 4.02 l-0.52 3.87 -6.85 9.49 c-3.76 5.25 -11.53 16.15 -17.34 24.22 -5.80 8.07 -11.72 16.33 -13.17 18.34 l-2.64 3.68 -2.31 0.07 c-1.30 0.04 -2.34 -0.07 -2.34 -0.26z"/>
  <path d="M2.23 209.49 c0 -0.33 4.43 -6.70 13.21 -18.82 3.24 -4.50 10.16 -14.14 15.40 -21.39 5.21 -7.25 11.76 -16.37 14.55 -20.28 2.79 -3.87 7.85 -10.90 11.20 -15.63 3.39 -4.69 7.96 -11.05 10.19 -14.14 2.19 -3.05 7.14 -9.93 10.97 -15.25 3.83 -5.32 10.53 -14.66 14.88 -20.72 l7.96 -11.09 2.57 0 2.57 0 -0.89 1.23 c-1.15 1.53 -10.45 14.43 -19.08 26.49 -3.65 5.13 -10.27 14.32 -14.69 20.46 -4.43 6.14 -9.75 13.50 -11.79 16.37 -9.78 13.76 -38.80 54.09 -45.31 63.06 -2.90 3.98 -5.65 7.89 -6.18 8.63 -0.86 1.38 -0.93 1.41 -3.20 1.41 -1.30 0 -2.34 -0.15 -2.34 -0.33z"/>
  <path d="M13.39 209.56 c0.04 -0.19 3.09 -4.58 6.81 -9.78 3.76 -5.21 14.03 -19.53 22.81 -31.81 8.82 -12.28 17.75 -24.74 19.90 -27.72 2.16 -2.98 6.92 -9.56 10.57 -14.69 3.68 -5.10 10.16 -14.14 14.47 -20.09 4.28 -5.92 11.20 -15.55 15.40 -21.39 4.17 -5.84 7.89 -10.90 8.22 -11.27 0.52 -0.52 1.12 -0.63 2.98 -0.56 l2.31 0.11 -19.27 26.79 c-19.61 27.27 -23.21 32.25 -44.90 62.50 -12.57 17.52 -15.74 21.95 -26.49 36.83 -3.39 4.72 -6.58 9.19 -7.11 9.97 -0.93 1.34 -1 1.38 -3.31 1.38 -1.30 0 -2.38 -0.11 -2.38 -0.26z"/>
  <path d="M24.55 209.60 c0 -0.11 1.08 -1.71 2.42 -3.50 1.30 -1.82 6.40 -8.85 11.27 -15.70 4.87 -6.81 13.21 -18.42 18.49 -25.78 5.28 -7.37 12.98 -18.08 17.08 -23.81 10.23 -14.32 26.93 -37.35 27.98 -38.62 1.08 -1.26 1.08 -1.12 0.48 3.50 -0.48 3.46 -0.15 2.94 -11.31 18.38 -4.69 6.44 -17.86 24.81 -22.32 31.06 -1.67 2.34 -8.18 11.50 -14.51 20.28 -6.32 8.82 -12.76 17.75 -14.29 19.90 -1.53 2.16 -4.54 6.29 -6.66 9.23 l-3.87 5.28 -2.38 0 c-1.30 0 -2.38 -0.11 -2.38 -0.22z"/>
  <path d="M35.97 209.38 c0.22 -0.26 2.86 -3.98 5.95 -8.30 4.99 -7.03 23.59 -32.96 31.18 -43.53 1.64 -2.23 4.80 -6.70 7.07 -9.86 10.68 -14.92 18.42 -25.56 19.12 -26.41 0.71 -0.82 0.78 -0.82 0.63 -0.19 -0.11 0.41 -0.37 2.08 -0.60 3.72 -0.22 1.64 -0.60 3.35 -0.78 3.83 -0.19 0.48 -6.36 9.26 -13.69 19.53 -14.51 20.35 -35.97 50.33 -40.96 57.25 l-3.16 4.39 -2.57 0 c-1.97 0 -2.46 -0.11 -2.19 -0.45z"/>
  <path d="M92.26 209.67 c0 -0.19 19.68 -27.75 27.34 -38.32 l4.84 -6.62 0.22 1.67 c0.15 0.89 0.41 1.97 0.63 2.34 0.19 0.41 0.26 0.93 0.15 1.23 -0.19 0.52 -2.75 4.20 -8.78 12.50 -1.75 2.46 -6.85 9.60 -11.31 15.89 l-8.07 11.42 -2.49 0 c-1.41 0.04 -2.53 -0.04 -2.53 -0.11z"/>
  <path d="M103.79 209.49 c0 -0.26 11.38 -16.37 16.52 -23.36 1.30 -1.75 1.82 -2.01 1.53 -0.74 -0.11 0.45 -0.33 2.01 -0.52 3.46 -0.19 1.45 -0.63 3.24 -1 3.94 -0.41 0.74 -3.20 4.87 -6.29 9.19 l-5.58 7.85 -2.31 0 c-1.30 0 -2.34 -0.15 -2.34 -0.33z"/>
  <path d="M114.96 209.64 c0 -0.30 5.54 -8.22 8.26 -11.79 l2.19 -2.90 2.01 0 c1.12 0 2.08 0.15 2.19 0.33 0.11 0.19 -2.08 3.53 -4.87 7.44 l-5.06 7.11 -2.34 0 c-1.30 0 -2.38 -0.07 -2.38 -0.19z"/>
  <path d="M126.34 209.38 c0.15 -0.26 2.05 -2.90 4.20 -5.88 2.12 -2.98 4.32 -6.03 4.84 -6.77 1.15 -1.64 1.26 -1.71 3.31 -1.49 1.30 0.11 1.56 0.30 1.56 0.97 -0.04 0.41 -2.08 3.65 -4.58 7.11 l-4.58 6.32 -2.53 0.11 c-1.97 0.07 -2.46 0 -2.23 -0.37z"/>
  <path d="M138.43 208.26 c0.67 -0.89 1.26 -1.67 1.34 -1.75 0.07 -0.07 0.11 0.63 0.11 1.56 l0 1.75 -1.34 0 -1.34 0 1.23 -1.56z"/>
  <path d="M1.12 198.07 l0 -3.24 2.16 -3.01 c1.19 -1.64 4.39 -6.10 7.14 -9.90 6.29 -8.67 29.54 -41 38.69 -53.76 3.79 -5.32 11.27 -15.70 16.56 -23.07 5.28 -7.37 11.94 -16.67 14.81 -20.65 2.86 -3.98 6.03 -8.37 7.07 -9.75 l1.86 -2.53 2.34 0 c1.30 0 2.38 0.11 2.38 0.22 0 0.15 -1.90 2.86 -4.20 6.06 -2.34 3.20 -5.06 6.99 -6.10 8.41 -2.16 3.01 -18.38 25.63 -27.05 37.72 -3.31 4.58 -7.51 10.42 -9.38 13.02 -3.05 4.28 -15.96 22.21 -20.50 28.50 -1.04 1.45 -5.62 7.81 -10.16 14.14 -11.79 16.41 -14.88 20.61 -15.29 20.83 -0.19 0.15 -0.33 -1.08 -0.33 -3.01z"/>
  <path d="M1.12 182.40 l0 -3.42 2.72 -3.65 c1.49 -2.01 4.61 -6.32 6.96 -9.60 2.31 -3.27 7.70 -10.71 11.90 -16.56 4.24 -5.84 10.60 -14.69 14.21 -19.72 3.57 -5.02 10.16 -14.21 14.66 -20.46 4.50 -6.25 12.28 -17 17.22 -23.92 4.99 -6.96 9.30 -12.69 9.52 -12.76 0.26 -0.11 1.41 -0.15 2.57 -0.07 l2.16 0.11 -1.23 1.67 c-2.46 3.35 -18.38 25.56 -20.42 28.46 -1.15 1.64 -3.50 4.91 -5.21 7.25 -1.71 2.34 -7.74 10.71 -13.39 18.60 -10.53 14.66 -24.85 34.60 -34.41 47.81 -2.94 4.09 -5.80 7.96 -6.29 8.56 l-0.93 1.12 -0.04 -3.42z"/>
  <path d="M129.09 174.18 c0.04 -0.82 0.67 -1.15 1.67 -0.86 0.63 0.19 1.04 0.37 0.93 0.37 -0.11 0.04 -0.74 0.19 -1.41 0.37 -0.63 0.19 -1.19 0.26 -1.19 0.11z"/>
  <path d="M1.12 166.70 l0 -3.27 4.54 -6.29 c2.49 -3.46 7.22 -10.04 10.53 -14.66 3.31 -4.61 10.01 -13.88 14.88 -20.65 4.87 -6.73 10.49 -14.55 12.46 -17.30 1.97 -2.75 5.02 -6.96 6.73 -9.34 1.71 -2.38 6.14 -8.52 9.82 -13.69 l6.70 -9.34 2.57 0 c1.97 0 2.46 0.11 2.19 0.45 -0.22 0.26 -10.04 13.95 -21.88 30.43 -11.83 16.48 -23.21 32.29 -25.30 35.16 -2.05 2.86 -4.17 5.80 -4.65 6.51 -0.48 0.71 -2.16 3.05 -3.72 5.21 -1.56 2.16 -5.47 7.55 -8.71 12.02 -3.20 4.43 -5.92 8.07 -5.99 8.07 -0.11 0 -0.19 -1.49 -0.19 -3.31z"/>
  <path d="M1.12 150.82 l0 -3.24 2.49 -3.39 c3.79 -5.21 9.64 -13.24 17 -23.47 3.68 -5.10 11.05 -15.33 16.37 -22.69 5.32 -7.37 11.42 -15.81 13.54 -18.79 2.16 -2.98 4.17 -5.77 4.50 -6.21 0.52 -0.71 0.93 -0.82 3.09 -0.86 l2.49 0 -3.61 5.10 c-2.01 2.83 -4.65 6.47 -5.88 8.11 -1.19 1.67 -4.87 6.73 -8.15 11.31 -3.27 4.58 -8.56 11.94 -11.76 16.37 -4.43 6.14 -25.15 34.86 -28.94 40.10 -0.33 0.45 -0.71 0.86 -0.86 0.86 -0.19 0 -0.30 -1.45 -0.30 -3.20z"/>
  <path d="M118.42 147.28 c0.11 -0.71 0.33 -2.49 0.48 -4.02 l0.26 -2.75 3.91 -5.43 c5.10 -7.11 6.14 -8.41 6.32 -7.89 0.07 0.22 -0.11 2.05 -0.45 4.06 -0.48 2.79 -0.86 3.94 -1.71 5.10 -0.60 0.82 -2.72 3.79 -4.69 6.62 -2.01 2.83 -3.79 5.25 -3.98 5.36 -0.22 0.15 -0.26 -0.26 -0.15 -1.04z"/>
  <path d="M1.12 135.19 l0 -3.35 2.75 -3.72 c3.05 -4.09 17.67 -24.26 31.47 -43.38 l9.04 -12.57 2.38 0 c1.26 0 2.34 0.11 2.34 0.22 0 0.22 -3.39 5.02 -11.72 16.52 -2.90 3.98 -10.08 13.95 -16 22.14 -15.77 21.84 -18.79 25.97 -19.57 26.79 -0.71 0.71 -0.71 0.67 -0.71 -2.64z"/>
  <path d="M121.28 127.68 c0 -0.63 0.19 -2.46 0.41 -4.06 0.37 -2.72 0.56 -3.13 2.90 -6.44 4.35 -6.10 12.09 -16.85 13.62 -18.90 l1.49 -1.97 0.11 3.35 0.11 3.39 -3.05 4.20 c-1.67 2.27 -3.94 5.36 -4.99 6.77 -1.04 1.45 -3.83 5.28 -6.14 8.56 -2.31 3.27 -4.28 6.03 -4.35 6.10 -0.04 0.07 -0.11 -0.37 -0.11 -1z"/>
  <path d="M1.12 119.53 l0 -3.27 5.02 -6.81 c2.75 -3.72 8.52 -11.68 12.83 -17.67 4.28 -5.99 9.26 -12.83 11.01 -15.22 l3.20 -4.39 2.38 0 c1.30 0 2.38 0.11 2.38 0.22 0 0.11 -2.83 4.09 -6.25 8.82 -3.46 4.76 -8.89 12.31 -12.17 16.82 -10.75 14.92 -17.97 24.74 -18.23 24.74 -0.11 0 -0.19 -1.45 -0.19 -3.24z"/>
  <path d="M137.65 114.47 c0 -0.07 0.52 -0.60 1.12 -1.19 l1.12 -1.08 0 1.19 c0 1.08 -0.11 1.19 -1.12 1.19 -0.60 0 -1.12 -0.04 -1.12 -0.11z"/>
  <path d="M124 108.41 c0.11 -0.41 0.30 -2.05 0.45 -3.68 0.15 -1.64 0.45 -3.31 0.67 -3.72 0.33 -0.71 12.43 -17.49 14.03 -19.53 l0.74 -0.93 0 3.46 0 3.50 -1.60 2.08 c-1.60 2.08 -6.14 8.37 -11.12 15.40 -2.64 3.72 -3.50 4.65 -3.16 3.42z"/>
  <path d="M1.12 103.98 l0 -3.20 4.20 -5.69 c2.27 -3.16 6.92 -9.52 10.31 -14.17 3.35 -4.65 6.29 -8.52 6.55 -8.63 0.22 -0.07 1.38 -0.11 2.53 -0.04 l2.12 0.11 -6.58 9.11 c-11.46 15.85 -18.38 25.26 -18.75 25.48 -0.22 0.15 -0.37 -1 -0.37 -2.98z"/>
  <path d="M108.63 92.37 c1 -1.41 4.65 -6.47 8.11 -11.27 l6.29 -8.74 2.46 -0.11 c1.38 -0.07 2.49 0 2.49 0.11 0 0.11 -2.64 3.83 -5.88 8.30 -3.24 4.43 -6.70 9.19 -7.66 10.60 -1.45 2.05 -1.97 2.49 -2.83 2.49 -0.56 0 -1.75 0.26 -2.60 0.56 -0.86 0.30 -1.75 0.56 -1.90 0.56 -0.19 0 0.48 -1.12 1.53 -2.49z"/>
  <path d="M119.05 93.64 c0 -0.11 3.35 -4.80 11.35 -15.81 l4.09 -5.65 2.53 0 2.53 0 -1.53 2.12 c-0.86 1.19 -4.35 6.03 -7.78 10.71 l-6.21 8.56 -2.49 0.11 c-1.38 0.07 -2.49 0.04 -2.49 -0.04z"/>
  <path d="M1.12 88.43 l0 -3.24 4.02 -5.51 c6.06 -8.37 5.21 -7.55 8 -7.44 l2.42 0.11 -5.95 8.18 c-3.27 4.50 -6.51 8.85 -7.18 9.67 l-1.26 1.49 -0.04 -3.27z"/>
  <path d="M1.12 73.85 l0 -1.67 1.53 0 c1.64 0 1.64 0.04 0.04 2.16 -0.48 0.63 -1.04 1.19 -1.23 1.19 -0.19 0 -0.33 -0.74 -0.33 -1.67z"/>
 </g>
 <g fill="#20f928" stroke="#20f928" stroke-width="0.372">
  <path d="M404.58 175.82 c-6.03 -1.45 -10.97 -6.55 -12.13 -12.43 -0.71 -3.72 -0.26 -7.44 1.30 -10.71 1.04 -2.23 2.23 -3.76 6.51 -8.30 2.90 -3.05 5.25 -5.69 5.25 -5.92 0 -0.19 -2.19 -2.64 -4.87 -5.47 -5.43 -5.69 -6.70 -7.81 -7.40 -12.17 -0.52 -3.35 0.04 -6.77 1.64 -10.16 3.01 -6.40 10.01 -10.01 17.08 -8.82 4.32 0.74 6.03 1.82 11.79 7.40 l5.21 5.06 5.13 -5.02 c5.39 -5.28 7.25 -6.51 11.16 -7.33 2.68 -0.56 4.72 -0.52 7.33 0.15 3.31 0.86 5.25 1.93 7.44 4.06 4.54 4.46 6.14 11.68 3.94 17.89 -0.97 2.75 -1.97 4.09 -7.07 9.49 -2.49 2.64 -4.50 4.87 -4.50 4.99 0 0.11 2.31 2.64 5.13 5.58 6.77 7.07 8.26 9.93 8.26 15.77 0 10.12 -8.89 17.78 -18.71 16.15 -4.58 -0.78 -6.14 -1.79 -12.24 -7.96 -3.01 -3.01 -5.62 -5.51 -5.84 -5.51 -0.19 0 -2.60 2.31 -5.39 5.13 -2.75 2.79 -5.88 5.62 -6.99 6.29 -3.57 2.16 -7.92 2.83 -12.02 1.82z"/>
 </g>
</svg>