<?xml version="1.0" encoding="utf-8"?>
<!DOCTYPE svg PUBLIC "-//W3C//DTD SVG 1.0//EN" "http://www.w3.org/TR/2001/REC-SVG-20010904/DTD/svg10.dtd">
<svg version="1.0" xmlns="http://www.w3.org/2000/svg" width="1563px" height="1563px" viewBox="0 0 1563 1563" preserveAspectRatio="xMidYMid meet">
 <g fill="#f9c920" stroke="#f9c920" stroke-width="1.526">
  <path d="M166.37 1406.39 c0 -1.07 -6.41 7.94 136.46 -192.17 141.65 -198.58 156.45 -219.03 157.98 -219.03 0.61 0 2.29 3.66 3.66 8.09 1.37 4.43 4.88 12.06 7.94 16.94 2.90 4.88 5.34 9.16 5.34 9.62 0 0.61 -27.93 40.14 -58.61 82.88 -7.48 10.53 -34.19 47.93 -59.38 83.19 -25.19 35.26 -57.85 80.90 -72.50 101.50 -14.81 20.61 -38.46 53.73 -52.66 73.72 l-25.95 36.17 -21.06 0 c-11.75 0 -21.22 -0.46 -21.22 -0.92z"/>
  <path d="M267.27 1406.24 c0 -0.76 7.63 -12.06 17.10 -25.19 102.57 -144.09 217.81 -305.12 222.85 -311.53 l4.58 -5.80 3.97 3.82 c2.14 1.98 8.40 6.26 13.89 9.46 5.49 3.05 10.23 5.80 10.53 6.11 0.46 0.31 -50.22 71.59 -216.44 304.05 l-14.35 20.15 -21.22 0 c-11.60 0 -21.06 -0.46 -20.91 -1.07z"/>
  <path d="M393.50 1369.46 c14.81 -20.76 64.87 -90.82 110.97 -155.69 l83.95 -117.68 15.26 -0.15 c8.40 -0.15 18.47 -0.76 22.59 -1.37 3.97 -0.61 7.17 -0.76 7.17 -0.31 0 0.46 -5.04 7.78 -11.14 16.33 -5.95 8.40 -56.17 78.61 -111.58 155.99 l-100.59 140.73 -21.83 0 -21.83 0 27.02 -37.85z"/>
  <path d="M472.11 1400.14 c2.90 -4.12 61.51 -85.93 130.05 -182.10 157.22 -219.95 156.76 -219.34 163.17 -226.67 l5.34 -6.11 12.21 12.21 12.21 12.21 -13.13 18.32 c-7.33 10.07 -18.93 26.25 -25.64 35.87 -6.87 9.62 -56.02 78.30 -109.14 152.64 -124.40 173.85 -125.16 174.92 -130.96 183.62 l-5.04 7.17 -22.13 0 -22.28 0 5.34 -7.17z"/>
  <path d="M572.85 1400.14 c2.75 -4.12 20.91 -29.31 39.99 -56.17 19.23 -26.86 38.16 -53.27 42.13 -58.77 3.82 -5.49 36.48 -51.13 72.35 -101.50 36.02 -50.37 73.11 -102.42 82.73 -115.55 l17.25 -23.96 8.09 8.09 c4.27 4.43 10.23 9.92 13.13 12.21 l5.19 4.12 -5.19 7.33 c-2.90 3.97 -57.39 80.29 -121.04 169.27 l-115.85 162.10 -21.98 0 -22.13 0 5.34 -7.17z"/>
  <path d="M671.91 1402.43 c1.98 -2.75 12.97 -18.01 24.42 -34.04 11.30 -15.87 39.08 -54.80 61.51 -86.24 22.59 -31.44 62.28 -87.16 88.22 -123.64 26.10 -36.48 47.93 -67.01 48.54 -67.77 0.76 -0.76 4.88 -0.31 10.07 1.07 4.88 1.37 13.43 2.90 19.08 3.51 l10.23 1.07 -7.48 10.84 c-9.01 13.13 -12.97 18.77 -85.32 120.13 -31.44 43.96 -60.60 84.87 -64.87 90.67 -4.43 5.95 -20.61 28.39 -35.87 50.06 l-28.09 39.23 -21.98 0 -22.13 0 3.66 -4.88z"/>
  <path d="M771.27 1405.33 c0.61 -1.83 70.82 -100.59 94.94 -133.86 5.19 -7.17 20 -27.78 32.82 -45.79 103.64 -145.31 101.50 -142.56 109.29 -146.23 17.10 -8.40 38.46 -26.86 52.20 -45.33 13.58 -18.32 27.78 -53.73 27.78 -69.30 0 -2.75 9.16 -16.79 29.92 -45.94 43.81 -61.21 66.55 -92.96 148.67 -207.59 40.60 -56.63 86.24 -120.58 101.50 -141.95 15.26 -21.37 29.31 -40.60 30.99 -42.74 l3.21 -3.82 0.15 30.53 0 30.53 -17.71 24.42 c-9.62 13.43 -30.37 42.28 -45.94 64.11 -15.72 21.83 -37.09 51.74 -47.78 66.40 -10.68 14.65 -37.24 51.74 -59.07 82.42 -21.83 30.68 -59.07 82.88 -82.88 116 -23.81 33.12 -70.52 98.45 -103.79 145 -53.88 75.56 -67.31 94.33 -96.62 135.08 -4.27 5.95 -16.94 23.81 -28.39 39.69 -11.30 16.03 -34.50 48.23 -51.29 71.74 -16.94 23.51 -36.33 50.83 -43.35 60.75 l-12.52 17.86 -21.52 0 c-16.94 0 -21.22 -0.46 -20.61 -1.98z"/>
  <path d="M871.56 1406.24 c0 -0.92 135.24 -190.95 179.50 -252.31 5.19 -7.17 38.62 -53.88 74.18 -103.79 71.89 -100.74 186.06 -260.25 194.92 -272.30 3.21 -4.27 22.90 -31.75 43.81 -61.21 l38.01 -53.42 0.46 30.37 c0.31 22.74 -0.15 31.14 -1.53 33.12 -15.72 22.13 -51.29 71.74 -72.20 100.59 -5.19 7.17 -27.47 38.46 -49.61 69.45 -22.13 31.14 -57.85 80.90 -79.22 110.66 -44.88 62.58 -183.93 257.04 -197.66 276.43 -5.19 7.17 -27.02 38.01 -48.84 68.23 l-39.38 55.25 -21.22 0 c-11.60 0 -21.22 -0.46 -21.22 -1.07z"/>
  <path d="M972.30 1406.39 c0 -1.07 0.92 -2.44 146.84 -206.67 153.86 -215.52 236.89 -331.68 243.91 -341.14 3.05 -4.12 13.13 -18.16 22.28 -30.99 l16.64 -23.51 0.46 30.53 0.31 30.53 -14.20 19.69 c-7.94 10.68 -21.83 30.22 -31.14 43.20 -9.31 12.97 -32.82 45.94 -52.35 73.27 -19.69 27.32 -48.08 67.16 -63.34 88.53 -15.26 21.37 -43.50 60.90 -62.73 87.77 -49.15 68.53 -69.30 96.77 -99.82 139.66 -14.50 20.61 -31.75 44.57 -38.16 53.42 -6.41 8.85 -14.81 20.61 -18.77 26.41 l-7.33 10.23 -21.37 0 c-11.60 0 -21.22 -0.46 -21.22 -0.92z"/>
  <path d="M1073.04 1406.55 c0 -1.53 25.49 -37.40 155.99 -219.95 121.80 -170.19 165.31 -230.79 169.43 -235.82 l4.12 -5.19 0.15 30.22 0 30.37 -19.69 26.86 c-17.71 24.42 -65.33 90.82 -87.16 121.65 -7.63 10.84 -26.56 37.24 -94.33 132.03 -10.53 14.65 -34.19 47.78 -52.66 73.72 l-33.58 46.86 -21.22 0 c-11.60 0 -21.06 -0.31 -21.06 -0.76z"/>
  <path d="M1183.39 1391.74 c6.11 -8.70 18.93 -26.71 28.54 -40.14 9.62 -13.43 39.08 -54.64 65.48 -91.58 26.41 -36.94 63.95 -89.45 83.34 -116.77 19.54 -27.32 36.94 -51.29 38.62 -53.42 l3.21 -3.82 0.15 30.37 0 30.22 -5.04 7.17 c-37.24 51.59 -70.21 97.53 -120.74 168.51 l-60.75 85.02 -21.98 0 -21.98 0 11.14 -15.57z"/>
  <path d="M1296.19 1374.95 c12.67 -17.86 34.04 -47.93 47.47 -66.85 30.07 -42.13 52.05 -72.81 56.02 -77.84 l3.05 -3.82 0 30.83 c0 29.76 -0.15 30.83 -3.51 35.11 -1.98 2.29 -21.22 29.15 -43.04 59.68 l-39.38 55.25 -21.83 0 -21.83 0 23.05 -32.36z"/>
  <path d="M1382.43 1394.79 c7.78 -11.14 18.01 -25.19 19.69 -27.02 0.31 -0.31 0.61 8.40 0.61 19.38 l0 20.15 -14.50 0 -14.50 0 8.70 -12.52z"/>
  <path d="M161.79 1300.77 l0 -30.83 20.15 -27.78 c20.61 -28.70 245.44 -343.13 281.16 -393.34 49.91 -70.06 70.52 -98.45 71.89 -98.76 1.83 -0.31 22.13 21.37 22.13 23.81 0 0.92 -14.96 16.64 -33.43 34.80 -18.32 18.16 -37.09 38.31 -41.82 44.57 -14.04 18.93 -22.59 38.92 -26.86 62.73 -1.22 6.87 -3.51 11.45 -11.75 22.90 -5.80 7.94 -17.55 24.27 -26.41 36.48 -8.70 12.21 -19.84 27.63 -24.57 34.50 -4.88 6.72 -15.11 21.22 -22.90 32.05 -7.94 10.84 -57.24 79.83 -109.59 153.25 -52.51 73.42 -96.01 134.17 -96.62 135.08 -0.76 0.76 -1.37 -11.91 -1.37 -29.46z"/>
  <path d="M161.79 1159.28 l0 -30.07 10.23 -13.89 c5.49 -7.63 45.94 -64.11 89.75 -125.31 160.73 -224.99 214.91 -300.85 215.98 -302.07 0.61 -0.76 2.75 1.22 4.73 4.43 1.83 3.21 6.72 9.77 10.84 14.50 3.97 4.88 7.33 9.31 7.33 9.62 0 0.46 -6.26 9.62 -14.04 20.30 -7.63 10.84 -17.86 25.03 -22.59 31.75 -4.73 6.72 -28.70 40.45 -53.42 74.79 -24.57 34.50 -67.16 93.87 -94.33 132.03 -27.32 38.16 -60.75 84.87 -74.18 103.79 -13.58 18.93 -36.63 50.98 -51.13 71.43 -14.50 20.30 -27.02 37.40 -27.78 37.85 -0.76 0.46 -1.37 -12.21 -1.37 -29.15z"/>
  <path d="M161.79 1018.70 l0 -30.68 5.49 -7.17 c3.05 -3.97 51.90 -72.20 108.83 -151.72 56.78 -79.52 122.11 -170.80 145.16 -203.01 22.90 -32.05 41.98 -58 42.43 -57.70 0.31 0.46 -0.31 4.43 -1.22 8.85 -1.07 4.43 -2.14 19.08 -2.44 32.51 l-0.61 24.42 -58.31 81.66 c-32.21 44.88 -65.33 91.28 -73.88 103.03 -8.40 11.75 -38.31 53.73 -66.55 93.11 -83.64 117.38 -94.63 132.64 -96.77 135.08 -1.83 1.83 -2.14 -2.44 -2.14 -28.39z"/>
  <path d="M161.79 877.97 l0 -30.37 4.58 -6.41 c19.08 -26.41 46.86 -64.87 57.24 -79.52 6.87 -9.62 42.28 -59.07 78.61 -109.90 36.33 -50.83 76.78 -107.46 90.06 -125.93 13.13 -18.47 56.02 -78.61 95.40 -133.56 39.38 -54.95 91.73 -128.37 116.46 -162.86 l45.03 -63.04 21.06 0 c11.75 0 21.22 0.46 21.22 0.92 0 1.53 23.51 -31.44 -257.96 362.36 -79.52 111.27 -155.08 217.05 -167.90 235.06 -12.97 18.01 -30.37 42.43 -38.92 54.19 -8.40 11.75 -26.25 36.63 -39.53 55.41 -13.28 18.62 -24.42 33.89 -24.73 33.89 -0.31 0 -0.61 -13.58 -0.61 -30.22z"/>
  <path d="M1076.85 881.02 c-2.44 -5.65 -6.41 -13.43 -8.85 -17.55 -2.44 -3.97 -4.12 -8.09 -3.66 -9.16 0.31 -0.92 28.70 -40.91 63.04 -88.83 34.19 -47.78 67.77 -94.94 74.64 -104.56 6.87 -9.62 29.46 -41.21 50.22 -70.21 20.76 -29 63.04 -87.77 93.72 -130.81 30.68 -43.04 56.17 -77.84 56.63 -77.54 0.46 0.46 0.61 14.35 0.31 30.68 l-0.46 30.07 -16.18 22.28 c-16.48 22.74 -48.69 67.77 -138.29 193.24 -27.63 38.62 -56.17 78.46 -63.50 88.53 -7.33 10.07 -32.97 46.10 -57.24 80.13 -24.12 34.04 -44.42 62.28 -44.88 62.89 -0.61 0.61 -3.05 -3.51 -5.49 -9.16z"/>
  <path d="M1019.16 807.75 c-6.41 -6.41 -11.75 -12.67 -11.75 -13.74 0 -1.07 8.70 -14.20 19.38 -29 82.88 -115.55 197.36 -275.36 317.03 -442.95 26.10 -36.48 50.06 -69.75 53.27 -73.88 l5.65 -7.48 0 30.37 0 30.53 -33.27 46.40 c-18.32 25.64 -42.89 59.99 -54.64 76.32 -26.56 36.79 -55.56 77.54 -76.93 107.61 -17.86 25.03 -78.30 109.75 -90.51 126.69 -4.27 5.95 -17.86 24.73 -30.07 41.98 -12.36 17.25 -34.65 48.54 -49.76 69.45 -14.96 21.06 -29 40.75 -31.14 43.96 -2.14 3.05 -4.12 5.65 -4.58 5.65 -0.46 0 -6.11 -5.34 -12.67 -11.91z"/>
  <path d="M161.79 737.39 l0 -30.99 6.56 -8.55 c3.51 -4.88 90.51 -126.38 193.24 -270.17 l186.67 -261.31 21.22 0 c11.60 0 21.22 0.46 21.22 0.92 0 1.37 -17.25 25.64 -87.77 124.25 -30.99 43.20 -60.14 84.10 -64.87 90.82 -4.73 6.72 -55.56 77.84 -112.95 157.98 -57.39 80.13 -116.92 163.63 -132.34 185.45 -15.57 21.83 -28.85 40.30 -29.61 41.21 -0.76 0.76 -1.37 -10.99 -1.37 -29.61z"/>
  <path d="M161.79 597.11 l0 -30.68 40.75 -56.93 c22.44 -31.29 46.40 -64.87 53.12 -74.49 14.50 -20.45 169.88 -237.50 183.16 -255.97 l9.16 -12.52 21.98 -0.15 21.83 0 -3.66 5.04 c-2.14 2.59 -13.74 18.93 -25.95 36.17 -12.06 17.25 -31.29 43.96 -42.43 59.53 -11.30 15.57 -24.27 33.73 -29 40.45 -14.81 20.91 -188.66 264.52 -204.84 286.96 -8.55 11.75 -17.40 24.12 -19.84 27.32 l-4.27 6.11 0 -30.83z"/>
  <path d="M1083.26 593.15 c-0.46 -7.17 -2.44 -18.32 -4.27 -25.03 l-3.21 -12.21 5.95 -8.09 c3.36 -4.58 29.15 -40.45 57.24 -79.98 28.09 -39.53 79.22 -110.81 113.41 -158.74 34.34 -47.93 71.28 -99.52 82.27 -114.78 l20 -27.93 21.98 0 c17.25 0 21.52 0.46 20.45 1.98 -0.76 0.92 -8.24 11.45 -16.48 23.20 -8.40 11.75 -19.84 27.93 -25.49 35.87 -17.25 23.96 -131.57 183.77 -183.01 255.67 -26.41 36.94 -56.63 79.22 -67.01 93.87 -10.38 14.65 -19.23 27.32 -19.84 27.93 -0.61 0.61 -1.53 -4.58 -1.98 -11.75z"/>
  <path d="M774.94 553.77 c0.76 -1.07 6.56 -9.16 12.82 -18.01 6.11 -8.85 27.32 -38.31 46.86 -65.48 19.69 -27.17 39.69 -54.95 44.42 -61.82 4.88 -6.72 40.30 -56.32 78.76 -110.05 38.46 -53.73 75.40 -105.47 82.12 -114.94 l12.21 -17.10 21.98 0 c17.25 0 21.83 0.46 20.76 1.83 -0.61 1.07 -8.09 11.60 -16.48 23.35 -8.55 11.75 -20.30 28.24 -26.10 36.63 -5.95 8.40 -33.73 47.16 -61.67 86.24 -27.93 39.08 -56.78 79.22 -63.80 89.29 -7.17 10.07 -19.54 27.32 -27.78 38.31 l-14.81 19.84 -13.43 6.41 c-7.33 3.51 -17.55 9.77 -22.74 13.89 -9.01 7.33 -43.96 42.13 -63.19 63.19 -5.19 5.65 -9.77 10.23 -10.38 10.23 -0.46 0 -0.31 -0.92 0.46 -1.83z"/>
  <path d="M727.62 510.11 c-6.41 -6.41 -11.75 -12.36 -11.75 -13.13 0 -0.76 9.16 -14.04 20.30 -29.76 11.30 -15.57 40.30 -56.17 64.72 -90.21 24.27 -34.04 67.01 -93.72 94.94 -132.79 27.93 -39.08 52.35 -72.50 54.19 -74.49 3.21 -3.36 4.27 -3.36 24.27 -3.05 l21.06 0.46 -14.20 19.84 c-7.94 10.99 -38.62 53.88 -68.38 95.40 -29.61 41.52 -60.90 85.17 -69.45 96.92 -8.40 11.75 -21.22 29.61 -28.39 39.69 -7.17 10.07 -21.52 30.07 -31.90 44.26 -10.38 14.35 -23.96 33.27 -30.37 42.43 -6.26 9.01 -11.75 16.33 -12.36 16.33 -0.46 0 -6.11 -5.34 -12.67 -11.91z"/>
  <path d="M1038.39 497.75 l-12.52 -12.97 5.49 -7.78 c10.99 -15.11 205.60 -287.26 213.84 -298.71 l8.40 -11.91 21.98 0 22.13 0 -5.34 7.17 c-2.90 4.12 -34.34 48.23 -70.06 98.30 -35.72 49.91 -68.38 95.55 -72.50 101.50 -4.27 5.80 -27.78 38.77 -52.35 73.11 -24.42 34.50 -45.03 63.04 -45.49 63.50 -0.61 0.46 -6.72 -5.04 -13.58 -12.21z"/>
  <path d="M161.79 455.16 l0 -30.22 9.46 -12.97 c5.34 -7.02 47.01 -65.33 92.80 -129.28 l83.19 -116.31 21.83 0 c16.03 0 21.52 0.46 20.76 1.68 -0.61 1.07 -20.30 28.70 -43.81 61.51 -23.51 32.82 -49.15 68.69 -56.78 79.52 -7.78 10.99 -31.75 44.57 -53.42 74.79 -21.67 30.22 -47.01 65.48 -56.17 78.30 -9.16 12.67 -16.94 23.20 -17.25 23.20 -0.31 0 -0.61 -13.58 -0.61 -30.22z"/>
  <path d="M529.65 475.46 c0 -1.07 2.59 -4.73 126.54 -177.82 38.16 -53.27 74.79 -104.71 81.51 -114.02 l12.21 -17.25 21.22 0 c13.28 0 21.06 0.61 20.76 1.53 -0.61 1.83 -16.94 24.88 -101.05 142.72 -37.85 52.96 -76.17 106.69 -85.32 119.36 -9.16 12.82 -17.40 23.81 -18.32 24.42 -1.07 0.61 -7.78 2.59 -14.96 4.43 -7.17 1.83 -19.23 6.41 -26.71 9.92 -7.48 3.66 -14.04 6.87 -14.65 7.17 -0.76 0.31 -1.22 0.15 -1.22 -0.46z"/>
  <path d="M662.44 463.10 c-7.17 -2.75 -14.20 -5.04 -15.57 -5.19 -1.53 0 -2.75 -0.76 -2.75 -1.68 0 -0.92 10.53 -16.18 23.35 -33.89 12.82 -17.86 25.95 -36.17 29.31 -40.75 12.52 -17.71 95.70 -133.86 121.80 -170.19 15.11 -20.91 28.85 -39.69 30.53 -41.52 2.90 -3.36 4.27 -3.51 24.27 -3.51 l21.22 0 -7.33 10.23 c-17.40 24.73 -94.94 133.25 -150.81 211.10 -13.43 18.93 -32.05 44.88 -41.06 57.70 -9.16 12.67 -17.40 23.05 -18.32 23.05 -0.92 -0.15 -7.48 -2.44 -14.65 -5.34z"/>
  <path d="M975.65 460.81 c-4.58 -1.53 -12.36 -3.66 -17.55 -4.58 -5.19 -1.07 -9.77 -1.98 -10.07 -2.29 -0.15 -0.15 11.45 -17.10 25.95 -37.40 14.65 -20.30 30.99 -43.35 36.48 -50.98 5.49 -7.78 39.69 -55.71 76.17 -106.54 l66.24 -92.65 21.98 0 22.13 0 -5.34 7.33 c-8.85 12.06 -78.46 109.44 -96.01 134.47 -9.16 12.82 -26.41 36.94 -38.16 53.42 -11.91 16.48 -25.64 35.72 -30.53 42.74 -5.04 7.02 -11.60 16.18 -14.81 20.61 -3.05 4.27 -10.38 14.35 -16.18 22.28 -5.80 7.94 -10.84 14.96 -11.30 15.42 -0.46 0.61 -4.58 -0.31 -9.01 -1.83z"/>
  <path d="M161.79 314.89 l0 -30.83 16.48 -22.59 c9.01 -12.36 24.27 -33.58 33.89 -47.01 25.19 -35.56 33.58 -46.71 35.72 -47.47 0.92 -0.31 10.84 -0.46 21.98 -0.31 l20.15 0.46 -20.30 28.24 c-11.14 15.57 -39.08 54.64 -62.12 87 -22.90 32.36 -42.74 59.83 -43.81 61.05 -1.68 1.83 -1.98 -3.05 -1.98 -28.54z"/>
  <path d="M161.79 185.76 l0 -19.38 13.74 0 c7.63 0 13.74 0.46 13.74 0.92 0 0.92 -23.05 32.97 -26.10 36.48 -0.76 0.76 -1.37 -7.17 -1.37 -18.01z"/>
 </g>
 <g fill="#20f928" stroke="#20f928" stroke-width="1.526">
  <path d="M583.68 1068.46 c-11.45 -2.14 -32.97 -10.07 -42.89 -15.87 -17.86 -10.38 -38.31 -32.51 -47.93 -51.59 -8.70 -17.25 -12.36 -33.43 -12.67 -55.41 -0.15 -25.03 2.75 -38.77 12.82 -59.68 8.55 -17.71 16.94 -27.32 69.91 -79.37 20 -19.69 30.99 -31.44 30.68 -33.12 -0.31 -1.37 -18.16 -20.61 -39.69 -42.59 -21.52 -22.13 -41.67 -43.20 -44.88 -46.86 -12.21 -14.65 -19.69 -36.02 -22.13 -62.28 -2.59 -28.70 3.51 -57.39 17.10 -80.59 7.94 -13.58 30.68 -36.17 43.96 -43.96 19.54 -11.30 47.78 -17.55 72.35 -15.87 18.32 1.22 29.15 4.27 46.71 12.67 l14.50 7.02 45.33 45.94 45.33 46.10 44.72 -44.42 c51.74 -51.59 58.92 -56.93 86.09 -64.11 15.57 -4.12 44.57 -3.82 61.67 0.76 20.61 5.49 36.48 14.04 50.52 27.32 30.07 28.24 44.26 64.72 41.98 107.91 -0.92 19.38 -3.66 30.83 -10.84 45.94 -6.11 12.67 -18.62 26.56 -65.94 73.11 -17.10 16.79 -30.99 31.44 -30.99 32.51 0 1.07 6.41 8.24 14.20 16.03 31.44 31.29 68.08 69.91 74.94 78.76 15.57 20.30 24.27 47.47 24.27 76.47 0 22.28 -4.12 39.69 -13.74 59.53 -5.95 12.52 -9.01 16.48 -21.67 29 -8.09 8.09 -18.93 17.10 -23.96 20.15 -39.84 23.35 -87.46 23.81 -125.01 1.07 -7.02 -4.27 -55.25 -51.44 -98.15 -95.86 l-8.09 -8.40 -51.44 51.29 c-49.76 49.45 -51.90 51.44 -64.41 57.39 -7.17 3.51 -17.10 7.48 -22.13 8.85 -10.84 2.90 -39.69 4.12 -50.52 2.14z"/>
 </g>
</svg>